HIERARCHY
ROOT joint_Root
{
	OFFSET 0.0 0.0 0.0
	CHANNELS 6 Xposition Yposition Zposition Zrotation Xrotation Yrotation 
	JOINT Hips
	{
		OFFSET 4.5925 91.4895 -427.239
		CHANNELS 6 Xposition Yposition Zposition Zrotation Xrotation Yrotation 
		JOINT Spine
		{
			OFFSET 15.7357 0.0 0.0
			CHANNELS 6 Xposition Yposition Zposition Zrotation Xrotation Yrotation 
			JOINT Chest
			{
				OFFSET 8.98455 -0.406207 0.0
				CHANNELS 6 Xposition Yposition Zposition Zrotation Xrotation Yrotation 
				JOINT Neck
				{
					OFFSET 16.3773 0.0 0.0
					CHANNELS 6 Xposition Yposition Zposition Zrotation Xrotation Yrotation 
					JOINT Head
					{
						OFFSET 6.45672 0.0 0.0
						CHANNELS 6 Xposition Yposition Zposition Zrotation Xrotation Yrotation 
						End Site
						{
							OFFSET 0.0 0.0 0.0
						}
					}
				}
				JOINT Shoulder_L
				{
					OFFSET 12.9942 -0.242716 4.98039
					CHANNELS 6 Xposition Yposition Zposition Zrotation Xrotation Yrotation 
					JOINT UpperArm_L
					{
						OFFSET 5.34809 0.0 0.0
						CHANNELS 6 Xposition Yposition Zposition Zrotation Xrotation Yrotation 
						JOINT LowerArm_L
						{
							OFFSET 24.3286 1.87007e-05 0.0
							CHANNELS 6 Xposition Yposition Zposition Zrotation Xrotation Yrotation 
							JOINT Hand_L
							{
								OFFSET 22.2916 0.0 0.0
								CHANNELS 6 Xposition Yposition Zposition Zrotation Xrotation Yrotation 
								End Site
								{
									OFFSET 0.0 0.0 0.0
								}
							}
						}
					}
				}
				JOINT Shoulder_R
				{
					OFFSET 12.9945 -0.242716 -4.98039
					CHANNELS 6 Xposition Yposition Zposition Zrotation Xrotation Yrotation 
					JOINT UpperArm_R
					{
						OFFSET -5.34813 0.0 0.0
						CHANNELS 6 Xposition Yposition Zposition Zrotation Xrotation Yrotation 
						JOINT LowerArm_R
						{
							OFFSET -24.3289 0.000322201 0.0
							CHANNELS 6 Xposition Yposition Zposition Zrotation Xrotation Yrotation 
							JOINT Hand_R
							{
								OFFSET -22.2915 -0.000108084 0.0
								CHANNELS 6 Xposition Yposition Zposition Zrotation Xrotation Yrotation 
								End Site
								{
									OFFSET 0.0 0.0 0.0
								}
							}
						}
					}
				}
			}
		}
		JOINT UpperLeg_L
		{
			OFFSET -2.19248 -6.46944 0.0
			CHANNELS 6 Xposition Yposition Zposition Zrotation Xrotation Yrotation 
			JOINT LowerLeg_L
			{
				OFFSET 39.0811 0.0 -1.23785e-05
				CHANNELS 6 Xposition Yposition Zposition Zrotation Xrotation Yrotation 
				JOINT Foot_L
				{
					OFFSET 40.9854 0.0 -1.26872e-05
					CHANNELS 6 Xposition Yposition Zposition Zrotation Xrotation Yrotation 
					JOINT Toes_L
					{
						OFFSET 11.7543 0.0 0.0
						CHANNELS 6 Xposition Yposition Zposition Zrotation Xrotation Yrotation 
						End Site
						{
							OFFSET 0.0 0.0 0.0
						}
					}
				}
			}
		}
		JOINT UpperLeg_R
		{
			OFFSET -2.19251 6.46944 0.0
			CHANNELS 6 Xposition Yposition Zposition Zrotation Xrotation Yrotation 
			JOINT LowerLeg_R
			{
				OFFSET -39.0811 -0.00228153 -0.0401928
				CHANNELS 6 Xposition Yposition Zposition Zrotation Xrotation Yrotation 
				JOINT Foot_R
				{
					OFFSET -40.9854 0.0 0.0
					CHANNELS 6 Xposition Yposition Zposition Zrotation Xrotation Yrotation 
					JOINT Toes_R
					{
						OFFSET -11.7543 0.0 0.0
						CHANNELS 6 Xposition Yposition Zposition Zrotation Xrotation Yrotation 
						End Site
						{
							OFFSET 0.0 0.0 0.0
						}
					}
				}
			}
		}
	}
}
MOTION
Frames:	5
Frame Time:	0.0333333
0.000000 0.000000 0.000000 0.000000 0.000000 -0.000000 134.272000 85.799200 -159.316000 83.508500 3.277910 -5.694510 15.735700 0.000005 -0.000001 51.161200 82.786800 -48.907300 8.984550 -0.406207 -0.000000 3.694190 -9.116030 4.805070 16.377300 -0.000001 -0.000001 -0.248694 0.018366 0.518599 6.456720 -0.000001 -0.000000 -0.076868 2.890940 3.349510 12.994200 -0.242716 4.980390 -90.294100 1.025410 -74.003400 5.348090 -0.000007 -0.000001 -60.513500 35.132700 -33.255000 24.328600 0.000019 0.000005 1.433140 -0.430675 -106.819000 22.291600 -0.000001 0.000005 8.017280 5.485470 -5.959500 12.994500 -0.242716 -4.980390 87.772100 9.519860 -76.764900 -5.348130 -0.000001 -0.000004 -64.485900 30.123600 20.837200 -24.328900 0.000322 -0.000009 -15.251200 -2.462290 -81.044100 -22.291500 -0.000108 -0.000004 36.404600 5.671140 -17.606600 -2.192480 -6.469440 -0.000000 -166.613000 -9.343660 12.168200 39.081100 -0.000007 -0.000012 -0.012756 0.024136 27.857400 40.985400 -0.000006 -0.000013 -0.249416 9.860190 -70.263900 11.754300 -0.000000 0.000003 -0.167354 -0.587916 -41.556500 -2.192510 6.469440 -0.000001 -164.037000 20.803400 143.525000 -39.081100 -0.002282 -0.040193 0.025809 -0.018721 50.315700 -40.985400 0.000008 0.000006 13.471500 4.260200 -72.668800 -11.754300 -0.000006 -0.000006 -0.007040 -0.080005 -19.830100
0.000000 0.000000 0.000000 0.000000 0.000000 -0.000000 133.742000 84.712000 -154.293000 83.448100 1.951130 -4.041730 15.735700 0.000005 -0.000001 57.643600 83.362000 -55.250500 8.984550 -0.406207 -0.000000 3.627580 -7.182730 5.013700 16.377300 -0.000001 -0.000001 0.184506 -0.134557 0.331952 6.456720 -0.000001 -0.000000 0.772778 1.956620 2.215700 12.994200 -0.242716 4.980390 -91.169100 3.875350 -73.198100 5.348090 -0.000007 -0.000001 -65.772900 35.572400 -19.032700 24.328600 0.000019 0.000005 4.703310 -0.173683 -92.149700 22.291600 -0.000001 0.000005 8.353840 5.489330 -6.106920 12.994500 -0.242716 -4.980390 86.375400 14.102800 -75.427600 -5.348130 -0.000001 -0.000004 -61.842500 34.709600 11.124500 -24.328900 0.000322 -0.000009 -14.477700 -2.418420 -80.717200 -22.291500 -0.000108 -0.000004 37.263500 5.658570 -15.894100 -2.192480 -6.469440 -0.000000 -165.341000 -9.781410 11.915200 39.081100 -0.000007 -0.000012 0.016658 -0.022725 36.239300 40.985400 -0.000006 -0.000013 -0.631504 10.231700 -63.218400 11.754300 -0.000000 0.000003 -0.344040 -0.843202 -54.170000 -2.192510 6.469440 -0.000001 -165.992000 16.798300 147.552000 -39.081100 -0.002282 -0.040193 0.044634 -0.029568 54.468000 -40.985400 0.000008 0.000006 12.148800 1.104390 -77.024700 -11.754300 -0.000006 -0.000006 -0.001737 -0.025381 -17.605100
0.000000 0.000000 0.000000 0.000000 0.000000 -0.000000 133.246000 84.555600 -149.550000 83.321800 1.415960 -1.581900 15.735700 0.000005 -0.000001 64.594800 83.329400 -61.961900 8.984550 -0.406207 -0.000000 4.442150 -5.790440 5.488260 16.377300 -0.000001 -0.000001 0.829882 -0.183953 0.446647 6.456720 -0.000001 -0.000000 0.672866 1.463740 0.263563 12.994200 -0.242716 4.980390 -91.022100 3.264370 -72.603200 5.348090 -0.000007 -0.000001 -69.894800 35.854300 -8.285480 24.328600 0.000019 0.000005 7.275810 2.468870 -71.374000 22.291600 -0.000001 0.000005 13.634900 5.524260 -7.534300 12.994500 -0.242716 -4.980390 86.267500 14.466800 -75.365200 -5.348130 -0.000001 -0.000004 -60.931400 40.589800 -1.107800 -24.328900 0.000322 -0.000009 -10.118000 -1.044830 -84.177300 -22.291500 -0.000108 -0.000004 35.696800 5.651800 -15.182000 -2.192480 -6.469440 -0.000000 -165.521000 -7.810800 7.996150 39.081100 -0.000007 -0.000012 0.066603 -0.059154 48.388400 40.985400 -0.000006 -0.000013 1.975410 8.061000 -51.472200 11.754300 -0.000000 0.000003 -0.267049 -0.746362 -49.152100 -2.192510 6.469440 -0.000001 -167.214000 15.080800 154.222000 -39.081100 -0.002282 -0.040193 0.065738 -0.044966 54.269900 -40.985400 0.000008 0.000006 11.288100 -0.925839 -80.163300 -11.754300 -0.000006 -0.000006 -0.001161 -0.017669 -17.291700
0.000000 0.000000 0.000000 0.000000 0.000000 -0.000000 132.961000 84.987900 -145.950000 83.947700 2.879710 -0.981044 15.735700 0.000005 -0.000001 69.796700 83.578500 -67.153200 8.984550 -0.406207 -0.000000 4.407380 -4.505440 5.456590 16.377300 -0.000001 -0.000001 0.171687 -1.603890 0.825337 6.456720 -0.000001 -0.000000 0.994320 0.863477 -0.397013 12.994200 -0.242716 4.980390 -91.175600 4.053440 -73.812100 5.348090 -0.000007 -0.000001 -68.130200 37.567100 1.475080 24.328600 0.000019 0.000005 8.767600 4.336500 -63.883600 22.291600 -0.000001 0.000005 13.580500 5.545300 -8.494220 12.994500 -0.242716 -4.980390 87.076100 12.571400 -76.794500 -5.348130 -0.000001 -0.000004 -58.610300 43.782000 -13.066900 -24.328900 0.000322 -0.000009 -5.806540 0.370721 -93.650800 -22.291500 -0.000108 -0.000004 33.172800 5.646510 -14.683400 -2.192480 -6.469440 -0.000000 -168.157000 -2.759810 -1.482950 39.081100 -0.000007 -0.000012 0.013992 -0.007552 61.627800 40.985400 -0.000006 -0.000013 1.937430 3.118800 -39.597200 11.754300 -0.000000 0.000003 -0.009855 -0.102561 -20.755300 -2.192510 6.469440 -0.000001 -168.564000 16.938700 158.694000 -39.081100 -0.002282 -0.040193 0.086205 -0.064380 52.189200 -40.985400 0.000008 0.000006 10.869300 -0.431201 -81.814700 -11.754300 -0.000006 -0.000006 -0.001459 -0.021732 -17.456800
0.000000 0.000000 0.000000 0.000000 0.000000 -0.000000 133.038000 86.292800 -142.548000 85.030000 2.222760 -0.780902 15.735700 0.000005 -0.000001 81.502500 83.772500 -79.525500 8.984550 -0.406207 -0.000000 4.589900 -1.891890 4.025790 16.377300 -0.000001 -0.000001 -0.628642 -2.325280 1.873550 6.456720 -0.000001 -0.000000 0.143672 -0.486779 0.653806 12.994200 -0.242716 4.980390 -91.115900 3.647560 -72.973600 5.348090 -0.000007 -0.000001 -64.644700 42.352100 10.592900 24.328600 0.000019 0.000005 4.594180 1.911670 -67.467900 22.291600 -0.000001 0.000005 12.043700 5.565620 -9.468690 12.994500 -0.242716 -4.980390 87.824800 10.276700 -77.981300 -5.348130 -0.000001 -0.000004 -52.866700 44.705700 -26.502100 -24.328900 0.000322 -0.000009 -4.777700 1.176070 -103.790000 -22.291500 -0.000108 -0.000004 31.330500 5.644260 -14.493600 -2.192480 -6.469440 -0.000000 -171.437000 -0.940196 -9.258290 39.081100 -0.000007 -0.000012 -0.080712 0.026842 71.608700 40.985400 -0.000006 -0.000013 5.087150 -1.540390 -42.075700 11.754300 -0.000000 0.000003 -0.011302 -0.113132 -21.187900 -2.192510 6.469440 -0.000001 -170.801000 16.879300 164.087000 -39.081100 -0.002282 -0.040193 0.076964 -0.067700 47.432600 -40.985400 0.000008 0.000006 10.342300 1.020270 -81.246300 -11.754300 -0.000006 -0.000006 -0.002526 -0.035122 -18.001300
